{
	"asset":{
		"generator":"Khronos glTF Blender I/O v4.5.47",
		"version":"2.0"
	},
	"scene":0,
	"scenes":[
		{
			"name":"Scene",
			"nodes":[
				0
			]
		}
	],
	"nodes":[
		{
			"mesh":0,
			"name":"Cube.001",
			"scale":[
				0.3085155487060547,
				0.3085155487060547,
				0.3085155487060547
			]
		}
	],
	"materials":[
		{
			"doubleSided":true,
			"name":"Cube Hehe",
			"normalTexture":{
				"index":0
			},
			"pbrMetallicRoughness":{
				"baseColorTexture":{
					"index":1
				},
				"metallicRoughnessTexture":{
					"index":2
				}
			}
		}
	],
	"meshes":[
		{
			"name":"Cube.002",
			"primitives":[
				{
					"attributes":{
						"POSITION":0,
						"NORMAL":1,
						"TEXCOORD_0":2
					},
					"indices":3,
					"material":0
				}
			]
		}
	],
	"textures":[
		{
			"sampler":0,
			"source":0
		},
		{
			"sampler":0,
			"source":1
		},
		{
			"sampler":0,
			"source":2
		}
	],
	"images":[
		{
			"mimeType":"image/png",
			"name":"Cube_NormalMap",
			"uri":"textures/Cube_NormalMap.png"
		},
		{
			"mimeType":"image/png",
			"name":"Cube_Diffused",
			"uri":"textures/Cube_Diffused.png"
		},
		{
			"mimeType":"image/png",
			"name":"Cube_Roughness",
			"uri":"textures/Cube_Roughness.png"
		}
	],
	"accessors":[
		{
			"bufferView":0,
			"componentType":5126,
			"count":4303,
			"max":[
				1,
				1,
				1
			],
			"min":[
				-1,
				-1,
				-1
			],
			"type":"VEC3"
		},
		{
			"bufferView":1,
			"componentType":5126,
			"count":4303,
			"type":"VEC3"
		},
		{
			"bufferView":2,
			"componentType":5126,
			"count":4303,
			"type":"VEC2"
		},
		{
			"bufferView":3,
			"componentType":5123,
			"count":15918,
			"type":"SCALAR"
		}
	],
	"bufferViews":[
		{
			"buffer":0,
			"byteLength":51636,
			"byteOffset":0,
			"target":34962
		},
		{
			"buffer":0,
			"byteLength":51636,
			"byteOffset":51636,
			"target":34962
		},
		{
			"buffer":0,
			"byteLength":34424,
			"byteOffset":103272,
			"target":34962
		},
		{
			"buffer":0,
			"byteLength":31836,
			"byteOffset":137696,
			"target":34963
		}
	],
	"samplers":[
		{
			"magFilter":9729,
			"minFilter":9987
		}
	],
	"buffers":[
		{
			"byteLength":169532,
			"uri":"Int_Cube.bin"
		}
	]
}
